<?xml version="1.0" encoding="utf-8"?>
<!-- Generator: Adobe Illustrator 24.1.2, SVG Export Plug-In . SVG Version: 6.00 Build 0)  -->
<svg version="1.1" id="Capa_1" xmlns="http://www.w3.org/2000/svg" xmlns:xlink="http://www.w3.org/1999/xlink" x="0px" y="0px"
	 viewBox="0 0 579 461" style="enable-background:new 0 0 579 461;" xml:space="preserve">
<g>
	<g id="SPLINE_8_">
		<polyline points="312.7,363.15 431.73,183.83 439.17,172.62 439.63,171.92 439.69,171.83 439.75,171.75 439.86,171.58 
			440.1,171.25 441.15,170.05 443.64,168.14 446.52,166.96 449.64,166.55 452.84,166.98 455.76,168.2 458.22,170.12 460.1,172.64 
			460.78,174.09 461.04,174.85 461.07,174.95 461.27,175.62 462.18,178.67 463.98,184.76 478.44,233.51 507.36,331 521.83,379.74 
			522.73,382.79 522.87,383.25 523,383.8 523.19,384.91 523.24,387.11 522.15,391.24 519.67,394.7 516.03,397.1 511.68,398.05 
			507.43,397.39 503.72,395.33 500.95,392.06 500.04,390.03 499.95,389.76 499.91,389.62 499.58,388.52 497.99,383.14 494.8,372.39 
			469.27,286.38 456.51,243.37 450.13,221.87 446.94,211.12 446.14,208.43 445.75,207.08 445.55,206.41 445.21,206.46 
			441.61,211.88 384.03,298.64 326.44,385.4 322.84,390.82 322.41,391.45 321.99,392.02 321.06,393.05 318.9,394.75 313.71,396.45 
			308.23,395.68 303.74,392.59 302.87,391.5 302.66,391.21 302.61,391.13 301.93,390.09 299.92,387.02 291.89,374.74 259.78,325.63 
			195.56,227.4 179.5,202.85 171.47,190.57 167.45,184.44 165.57,181.56 165.42,181.31 163.86,177.18 163.93,172.91 165.51,168.95 
			168.51,165.74 172.5,163.84 176.77,163.51 180.86,164.65 184.34,167.19 185.06,168.03 185.39,168.48 185.55,168.71 186.12,169.58 
			193.57,180.96 312.7,363.15 		"/>
	</g>
	<g id="SPLINE_9_">
		<polyline points="312.9,280.85 447.04,81.49 455.42,69.03 456.02,68.14 456.1,68.03 456.26,67.8 456.61,67.35 458.14,65.78 
			461.85,63.66 466.04,62.95 470.27,63.75 474.06,66.11 476.65,69.59 477.78,73.7 477.37,77.97 476.55,80.03 475.98,81.01 
			475.9,81.13 475.41,81.87 473.16,85.2 468.68,91.87 432.81,145.18 361.08,251.8 325.2,305.11 322.96,308.44 322.72,308.8 
			322.51,309.08 322.08,309.63 321.14,310.64 316.49,313.37 311,313.78 305.98,311.77 303.94,309.96 303.07,308.87 302.97,308.72 
			302.93,308.65 302.11,307.44 298.11,301.46 290.1,289.49 226.03,193.74 194,145.86 177.98,121.92 169.97,109.96 167.97,106.96 
			166.97,105.47 166.47,104.72 166.06,104.92 163.51,113.17 122.65,245.1 81.8,377.03 79.25,385.27 78.91,386.33 78.48,387.36 
			77.36,389.25 74.27,392.18 70.36,393.85 66.03,394.04 61.79,392.62 58.47,389.86 56.38,386.16 55.76,381.9 56.07,379.69 
			56.21,379.14 56.25,379 56.38,378.58 56.73,377.46 58.11,372.99 63.65,355.1 85.81,283.53 130.14,140.4 141.22,104.62 
			146.76,86.72 149.53,77.78 150.82,73.59 150.89,73.4 152.28,70.54 156.92,66.5 163.1,65.31 168.93,67.3 171.27,69.37 
			171.78,69.99 172.01,70.32 172.13,70.48 172.73,71.38 180.98,83.7 312.9,280.85 		"/>
	</g>
</g>
</svg>
