<?xml version="1.0" encoding="utf-8"?>
<!-- Generator: Adobe Illustrator 24.1.2, SVG Export Plug-In . SVG Version: 6.00 Build 0)  -->
<svg version="1.1" id="Capa_1" xmlns="http://www.w3.org/2000/svg" xmlns:xlink="http://www.w3.org/1999/xlink" x="0px" y="0px"
	 viewBox="0 0 645 602" style="enable-background:new 0 0 645 602;" xml:space="preserve">
<style type="text/css">
	.st0{fill:#FF0000;stroke:#000000;stroke-width:5;stroke-miterlimit:10;}
	.st1{fill:#FFFFFF;stroke:#000000;stroke-width:5;stroke-miterlimit:10;}
</style>
<g>
	<g id="SPLINE_8_">
		<polyline points="400.08,499.11 519.11,319.79 526.55,308.58 527.01,307.88 527.07,307.8 527.13,307.71 527.24,307.55 
			527.48,307.22 528.53,306.01 531.02,304.11 533.9,302.92 537.02,302.51 540.22,302.94 543.14,304.17 545.6,306.09 547.47,308.6 
			548.15,310.05 548.42,310.82 548.45,310.92 548.65,311.59 549.55,314.63 551.36,320.73 565.81,369.47 594.74,466.96 609.21,515.7 
			610.11,518.75 610.24,519.21 610.38,519.77 610.57,520.88 610.62,523.07 609.53,527.2 607.05,530.67 603.41,533.07 599.06,534.01 
			594.81,533.36 591.1,531.29 588.33,528.02 587.41,525.99 587.33,525.72 587.29,525.59 586.96,524.48 585.36,519.11 582.17,508.36 
			556.65,422.34 543.89,379.34 537.51,357.83 534.32,347.08 533.52,344.39 533.12,343.05 532.92,342.38 532.59,342.43 
			528.99,347.85 471.41,434.61 413.82,521.36 410.22,526.78 409.79,527.42 409.37,527.98 408.44,529.02 406.28,530.71 
			401.09,532.41 395.6,531.64 391.12,528.56 390.24,527.47 390.04,527.17 389.99,527.1 389.31,526.05 387.3,522.98 379.27,510.7 
			347.16,461.59 282.94,363.37 266.88,338.82 258.85,326.54 254.83,320.4 252.95,317.52 252.79,317.28 251.23,313.15 251.3,308.88 
			252.89,304.91 255.88,301.71 259.88,299.81 264.15,299.48 268.24,300.62 271.71,303.15 272.43,303.99 272.77,304.44 
			272.93,304.67 273.5,305.54 280.95,316.93 400.08,499.11 		"/>
	</g>
	<g id="SPLINE_9_">
		<polyline points="400.28,416.81 534.42,217.45 542.8,204.99 543.4,204.11 543.48,203.99 543.64,203.76 543.98,203.32 
			545.52,201.75 549.23,199.63 553.42,198.92 557.65,199.72 561.44,202.07 564.02,205.56 565.16,209.66 564.75,213.93 
			563.93,215.99 563.36,216.98 563.28,217.1 562.78,217.84 560.54,221.17 556.06,227.83 520.19,281.14 448.45,387.77 412.58,441.07 
			410.34,444.41 410.09,444.76 409.89,445.05 409.46,445.6 408.52,446.61 403.87,449.34 398.38,449.74 393.36,447.74 391.32,445.93 
			390.45,444.83 390.35,444.69 390.3,444.62 389.49,443.41 385.49,437.42 377.48,425.45 313.41,329.7 281.38,281.83 265.36,257.89 
			257.35,245.92 255.35,242.93 254.34,241.43 253.84,240.69 253.44,240.89 250.89,249.13 210.03,381.06 169.18,512.99 
			166.63,521.24 166.29,522.29 165.86,523.33 164.74,525.22 161.64,528.15 157.73,529.81 153.41,530.01 149.17,528.59 
			145.85,525.82 143.76,522.12 143.13,517.87 143.44,515.66 143.59,515.1 143.63,514.97 143.76,514.55 144.11,513.43 145.49,508.96 
			151.03,491.06 173.19,419.5 217.51,276.36 228.59,240.58 234.13,222.69 236.91,213.74 238.2,209.56 238.26,209.36 239.65,206.51 
			244.3,202.47 250.48,201.27 256.31,203.27 258.65,205.34 259.15,205.96 259.39,206.28 259.5,206.45 260.11,207.35 268.35,219.67 
			400.28,416.81 		"/>
	</g>
	<g>
		<path class="st0" d="M50.77,434.45c-4.53-2.32-9.65-3.93-13.43-7.14c-5.09-4.32-3.35-9.73,3.14-11.86
			c2.25-0.74,4.64-1.07,7.02-1.59c-6.97-17.83-6.17-21.78,5.35-23.71c-0.97-2.67-2.5-5.19-2.68-7.8
			c-0.32-4.63-1.09-10.01,0.89-13.69c0.98-1.83,7.65-0.59,12.21-0.76c-0.93-8.21,0.87-17.33-3.06-27.05
			c-15.79-39.13-25.08-79.74-22.5-122.41c3.24-53.73,26.99-95.44,72.73-124.12c26.11-16.37,54.12-26.72,85.39-26.3
			c33.3,0.44,61.82,13.3,87.21,33.99c14.68,11.96,27.97,25.3,38.44,41.27c1,1.53,2.92,3.26,4.56,3.42
			c8.54,0.85,13.7,5.43,15.52,11.86c5.63,1.97,11.53,2.38,14.22,5.55c1.96,2.31-0.32,8.24-0.83,13.98c3.83,3,8.26,7.81,5.25,15.53
			c11.68,4.22,13.01,8.86,5.27,19.01c4.36,4.45,7.58,10.51,3.53,15.62c-2.85,3.58-9.18,4.38-15.44,7.05
			c-3.55,9.69-4.62,10.45-13.08,8.61c-3.21,3.97-5.47,9.25-9.17,10.65c-3.74,1.41-8.91-1.02-14.05-1.87
			c-5.04,8.02-7.57,9.29-16.02,7.2c-2.19,14.48-6.66,15.95-21.2,6.52c-2.72,8.27-8.48,11.2-17.02,8.76
			c-2.24,6.66-2.77,14.62-10.54,16.72c-2.74,0.74-6.4-1.92-10.32-3.26c-2.84,5.23-6.88,11.22-14.54,7.47
			c-4.19,5.44-7.62,10.82-12.07,15.15c-1.52,1.48-5.61,0.3-8.92,0.34c-5.06,12.19-8.97,13.43-21.72,6.04
			c-1.91,3.02-3.55,6.27-5.78,9.04c-5.89,7.34-10.33,7.07-15.54-0.84c-5.94,1.91-11.64,8.65-18.14,3.62
			c-2.69-2.08-2.77-7.56-4.3-12.32c-2.64,0.04-7.25,0.7-11.64-0.01c-2.8-0.45-6.91-2.49-7.47-4.61c-0.68-2.56,1.44-6.15,2.99-8.94
			c0.99-1.79,3.15-2.92,4.85-4.4c-13.32-9.4-14.22-11.67-9.05-18.51c-2.65-5.29-5.53-9.75-6.86-14.64
			c-0.31-1.15,4.58-3.74,7.66-6.11c0.17-3.96-1.36-10.37,1.04-14.45c3.95-6.71,2.23-12.53,1.32-19.03
			c-2.13-15.18-0.77-30.15,5.61-44.19c2.42-5.33,1.86-9.61-0.72-14.23c-23.75,22.89-45.92,168.43-28.33,187.11
			c3.78-3.71,4.26-12.02,11.44-10.57c3.23,0.65,5.65,5.33,9.46,9.23c10.32,0.45,12.46,1.81,16.03,11.62
			c2.93-1.89,5.58-4.46,8.71-5.38c3.38-0.99,8.36-1.88,10.52-0.14c2.09,1.68,2.43,6.91,1.81,10.27c-0.7,3.84-3.3,7.32-4.79,10.38
			c3.68,2.33,8.45,3.87,10.54,7.13c1.8,2.81,0.54,7.59,0.67,13.16c9.06,8.4,9.24,13.3-1.09,21.22c2.98,3.05,6.67,5.65,8.68,9.21
			c1.93,3.42,3.61,8.21,2.7,11.7c-1.26,4.84-6.7,3.54-10.57,3.04c-3.55-0.46-6.98-1.82-10.32-2.75c-0.65,4.61-0.25,9.76-2.23,13.71
			c-2.45,4.9-7.71,4.24-12.9,1.89c0.13,6.74-1.45,12.82-7.39,15.18c-5.72,2.28-11.07-0.34-15.28-6
			c-3.81,7.84-8.67,14.79-17.49,13.96c-8.1-0.77-8.78-8.95-10.67-15.24c-14.23,1.66-17.57-0.25-20.88-12.19
			c-2.76,1.19-5.41,2.59-8.22,3.5c-8.6,2.8-14.43-1.31-13.54-10.32c0.46-4.62,3.15-9.03,4.83-13.53c0.11,1.73,0.57,3.52,0.29,5.19
			c-2.54,14.91-0.91,16.62,13.52,13.3c3.14-0.72,5.44-0.79,6.96,2.62c2.7,6.08,7.54,8.52,14.15,8.53c1.9,0,4.54,1.7,5.58,3.39
			c7.96,13.03,10.3,13.38,21.03,2.41c0.28-0.29,0.53-0.77,0.86-0.84c2.24-0.47,4.9-1.84,6.7-1.11c10.34,4.15,12.28,3.4,16.41-6.9
			c0.7-1.75,2.5-3.99,4.11-4.29c8.95-1.67,9.54-1.7,9.8-10.89c0.14-5.05,2.09-5.67,6.37-5.04c4.86,0.72,9.83,0.76,14.75,1.09
			c0.37-0.58,0.74-1.15,1.11-1.73c-2.89-4.76-5.56-9.68-8.74-14.24c-2.08-2.97-2.48-5.22,0.16-8.02c3.99-4.25,3.4-8.58,0.14-13.22
			c-1.5-2.13-2.95-5.3-2.49-7.61c1.18-5.89-1.4-9.14-6.24-10.89c-4.71-1.71-4.78-4.25-3.32-8.47c1.59-4.6,2.17-9.55,3.54-16
			c-5.56,2.06-9.5,3.08-12.99,4.93c-4.57,2.42-7.79,2.48-10.05-2.9c-0.64-1.53-2.33-2.85-3.84-3.75
			c-5.76-3.43-11.64-6.65-18.3-10.42c-2.37,3.16-5.33,7.12-8.4,11.22c-4.61-2.03-8.59-7.23-13.79-2.08
			c-3.12,3.08-5.54,2.02-8.16-0.81c-2.78-3-5.9-5.67-9.72-9.29c-1.12,5.27-2.07,8.95-2.65,12.69c-0.61,3.93-0.85,7.92-1.3,12.35
			c-2.59-0.55-4.49-1.02-6.43-1.35c-1.88-0.32-3.78-0.5-6.83-0.9c1.1,6.38,2.31,11.68,2.77,17.05c0.14,1.71-1.39,4.78-2.74,5.18
			c-5.04,1.46-5.67,4.59-4.66,8.9c0.6,2.57,1.04,5.19,1.81,7.71c1.16,3.75,0.38,6.17-3.66,7.5c-2.53,0.84-4.8,2.49-8.08,4.26
			C42.95,426.52,46.86,430.48,50.77,434.45z M204.6,304.93c8.69,3.99,9.48,3.76,14.79-4.36c1.11-1.7,1.86-3.72,3.25-5.12
			c1.3-1.31,3.41-3.01,4.84-2.76c5.23,0.94,7.9-1.99,10.51-5.59c1.24-1.71,2.74-3.24,4.07-4.79c9.7,6.93,10.04,7.08,15.09-1.92
			c2.79-4.97,6.07-8.07,11.87-9.13c2.63-0.48,4.66-3.67,7.26-5.08c2-1.08,4.82-2.37,6.66-1.74c12.78,4.32,12.73,4.47,14.48-8.43
			c0.04-0.33,0.46-0.61,0.69-0.9c10.85,0.99,11.13,1.22,14.81-3.26c2.8-3.42,5.35-4.2,9.36-2.24c5.39,2.63,10.07,1.45,12.38-4.49
			c1.52-3.92,3.93-4.89,7.9-4.97c2.17-0.05,5.59-1.9,6.2-3.7c1.74-5.15,5.29-6.44,9.96-7.4c7.4-1.52,8.3-3.87,6.43-11.34
			c-0.79-3.17-1.29-6.88-0.4-9.9c1.41-4.78,0.48-7.57-3.75-10.15c-1.87-1.13-2.9-3.89-3.94-6.08c-1.36-2.88-1.9-6.25-3.62-8.84
			c-2.35-3.53-3.24-6.86-1.54-10.82c2.11-4.91-0.24-6.97-4.8-8.23c-2.79-0.77-6.17-1.87-7.81-3.97c-5.86-7.53-13.32-9.14-22.21-8.05
			c-2.55,0.31-5.65-0.47-7.9-1.78c-7.04-4.09-7.88-3.9-12.61,2.84c-1.35,1.92-4.19,4.07-6.22,3.95c-5.14-0.29-9.05,1.2-12.57,4.77
			c-1.13,1.15-3.64,2.66-4.37,2.2c-5.79-3.69-9.8,0.27-13.69,3.19c-4.62,3.46-8.32,4.17-12.47-0.67c-3.37-3.93-6.25-2.82-7.86,1.94
			c-1.46,4.31-2.89,8.63-4.35,12.98c-8.88-3.59-9.22-3.64-16.33,2.86c-2.58,2.36-4.6,3.31-7.92,1.2c-4.12-2.61-7.72-1.79-9.76,3.17
			c-1.16,2.82-2.41,5.59-3.73,8.34c-0.59,1.22-1.49,3.34-2.16,3.3c-6.67-0.34-9.95,4.69-14.15,8.37c-0.92,0.8-2.61,1-3.95,1
			c-10.59-0.01-10.58-0.04-14.28,10c-0.54,1.47-1.24,2.89-2.09,4.84c-2.17-0.85-4-1.59-5.84-2.29c-7.43-2.82-9.57-1.57-10.41,6.25
			c-0.3,2.82-0.56,5.71-0.32,8.52c0.36,4.1-1.36,4.66-5.02,4.35c-9.01-0.76-12.23,1.88-13.46,10.88
			c-0.83,6.04,0.69,13.01-8.58,14.91c2,2.82,3.24,4.65,4.57,6.41c2.53,3.33,6.14,6.33,1.76,10.99c-0.65,0.69,0.19,3.46,1.09,4.76
			c1.36,1.97,3.23,3.65,5.12,5.17c3.34,2.69,3.79,5.31,0.87,8.72c-1.91,2.22-3.24,4.94-5.71,8.83c6.19,0.8,11.05,1.65,15.95,1.99
			c3.95,0.28,5.62,1.55,5.56,5.93c-0.09,6.5,1.59,7.5,7.82,5.88c2.35-0.61,4.59-1.84,6.96-2.12c1.74-0.21,4.36,0.04,5.27,1.16
			c3.35,4.14,5.94,3.07,8.8-0.35c1.95-2.33,3.87-4.79,6.22-6.66c1.54-1.23,4-2.41,5.75-2.07c12.06,2.38,12.03,2.51,16.51-9.25
			C203.71,305.82,204.08,305.55,204.6,304.93z"/>
		<path class="st1" d="M204.6,304.93c-0.52,0.62-0.89,0.88-1.03,1.23c-4.48,11.76-4.45,11.63-16.51,9.25
			c-1.74-0.34-4.21,0.84-5.75,2.07c-2.35,1.87-4.27,4.33-6.22,6.66c-2.86,3.42-5.45,4.49-8.8,0.35c-0.91-1.12-3.53-1.37-5.27-1.16
			c-2.37,0.29-4.61,1.51-6.96,2.12c-6.23,1.62-7.92,0.62-7.82-5.88c0.06-4.39-1.61-5.66-5.56-5.93c-4.9-0.34-9.76-1.19-15.95-1.99
			c2.48-3.89,3.81-6.61,5.71-8.83c2.93-3.41,2.47-6.03-0.87-8.72c-1.88-1.52-3.76-3.2-5.12-5.17c-0.89-1.3-1.73-4.07-1.09-4.76
			c4.38-4.66,0.77-7.66-1.76-10.99c-1.33-1.76-2.57-3.59-4.57-6.41c9.27-1.9,7.75-8.87,8.58-14.91c1.23-9,4.44-11.64,13.46-10.88
			c3.66,0.31,5.38-0.25,5.02-4.35c-0.24-2.81,0.02-5.7,0.32-8.52c0.84-7.82,2.98-9.07,10.41-6.25c1.84,0.7,3.67,1.44,5.84,2.29
			c0.85-1.95,1.55-3.36,2.09-4.84c3.7-10.04,3.69-10.01,14.28-10c1.34,0,3.03-0.2,3.95-1c4.21-3.68,7.48-8.72,14.15-8.37
			c0.67,0.03,1.58-2.08,2.16-3.3c1.32-2.74,2.58-5.52,3.73-8.34c2.04-4.96,5.64-5.79,9.76-3.17c3.33,2.11,5.35,1.16,7.92-1.2
			c7.1-6.51,7.45-6.45,16.33-2.86c1.45-4.35,2.88-8.67,4.35-12.98c1.61-4.76,4.5-5.86,7.86-1.94c4.15,4.83,7.85,4.13,12.47,0.67
			c3.9-2.92,7.9-6.88,13.69-3.19c0.73,0.46,3.23-1.05,4.37-2.2c3.53-3.57,7.44-5.06,12.57-4.77c2.03,0.12,4.87-2.04,6.22-3.95
			c4.73-6.73,5.57-6.93,12.61-2.84c2.25,1.31,5.35,2.09,7.9,1.78c8.89-1.09,16.35,0.52,22.21,8.05c1.64,2.1,5.01,3.2,7.81,3.97
			c4.56,1.26,6.91,3.33,4.8,8.23c-1.7,3.95-0.81,7.28,1.54,10.82c1.73,2.6,2.26,5.96,3.62,8.84c1.04,2.2,2.07,4.95,3.94,6.08
			c4.24,2.58,5.16,5.37,3.75,10.15c-0.89,3.02-0.4,6.73,0.4,9.9c1.87,7.47,0.97,9.82-6.43,11.34c-4.67,0.96-8.22,2.25-9.96,7.4
			c-0.61,1.8-4.02,3.65-6.2,3.7c-3.98,0.09-6.38,1.06-7.9,4.97c-2.31,5.94-6.99,7.13-12.38,4.49c-4.01-1.96-6.56-1.17-9.36,2.24
			c-3.68,4.49-3.96,4.26-14.81,3.26c-0.23,0.29-0.64,0.57-0.69,0.9c-1.75,12.9-1.7,12.74-14.48,8.43c-1.84-0.62-4.66,0.66-6.66,1.74
			c-2.6,1.41-4.63,4.6-7.26,5.08c-5.8,1.06-9.08,4.16-11.87,9.13c-5.05,9-5.39,8.85-15.09,1.92c-1.33,1.55-2.83,3.08-4.07,4.79
			c-2.61,3.6-5.28,6.54-10.51,5.59c-1.43-0.26-3.55,1.45-4.84,2.76c-1.39,1.4-2.14,3.42-3.25,5.12
			C214.08,308.69,213.29,308.92,204.6,304.93z M173.25,279.66c-8.33-2.86-11.87-2.39-13.87,1.65c-2.27,4.59,0,12.35,4.74,15.21
			c-0.14-3.23-0.12-6.26-0.45-9.24c-0.38-3.44,1.3-5.64,4.36-4.86c6,1.52,8.94-1.92,12.07-5.86c1.45-1.82,3.43-3.21,5.65-5.23
			c2.26,3.89,4.14,7.12,6.22,10.7c1.98-7.06,0.15-13.03-4.12-14.61C182.77,265.56,179.17,268.53,173.25,279.66z M308.73,208.76
			c-2.86-6.24-6.89-8.81-11.44-7.37c-5.87,1.86-10.53,8.2-9.46,13.03c2.44-1.9,4.89-3.71,7.23-5.66c3.82-3.18,7.1-3.27,10.31,1
			c0.93,1.23,2.99,2.33,4.48,2.26c3.57-0.16,8.26-2.68,10.35-1.21c2.36,1.66,2.36,6.67,3.77,11.55c2.43-5.54,5.22-10.43,1.25-14.78
			C319.84,201.69,314.12,206.45,308.73,208.76z M208.83,228.88c2.16-3.04,4.46-5.23,5.41-7.9c1.03-2.89,0.8-6.24,1.16-9.82
			c3.35,0.97,6.03,1.75,9.92,2.87c-3.13-5.11-5.9-9.49-10.98-7.4c-7.42,3.05-3.39,9.64-4.03,14.4c-2.65,2.55-5.74,5.33-6.33,8.56
			c-0.72,3.88,4.94,7.47,11.06,7.57C212.79,234.16,210.81,231.51,208.83,228.88z"/>
		<path class="st1" d="M50.77,434.45c-3.91-3.96-7.82-7.93-12.53-12.69c3.28-1.77,5.55-3.42,8.08-4.26c4.04-1.33,4.82-3.75,3.66-7.5
			c-0.77-2.52-1.21-5.14-1.81-7.71c-1.01-4.31-0.38-7.45,4.66-8.9c1.35-0.39,2.89-3.47,2.74-5.18c-0.45-5.37-1.67-10.67-2.77-17.05
			c3.05,0.39,4.95,0.58,6.83,0.9c1.93,0.33,3.84,0.8,6.43,1.35c0.45-4.43,0.7-8.42,1.3-12.35c0.58-3.73,1.53-7.41,2.65-12.69
			c3.82,3.62,6.95,6.29,9.72,9.29c2.62,2.83,5.05,3.9,8.16,0.81c5.2-5.14,9.18,0.06,13.79,2.08c3.07-4.1,6.04-8.06,8.4-11.22
			c6.66,3.77,12.55,6.99,18.3,10.42c1.51,0.9,3.19,2.22,3.84,3.75c2.25,5.38,5.47,5.32,10.05,2.9c3.5-1.85,7.43-2.87,12.99-4.93
			c-1.37,6.44-1.95,11.4-3.54,16c-1.46,4.22-1.4,6.76,3.32,8.47c4.84,1.76,7.42,5,6.24,10.89c-0.46,2.31,0.99,5.48,2.49,7.61
			c3.25,4.63,3.85,8.96-0.14,13.22c-2.63,2.81-2.24,5.05-0.16,8.02c3.19,4.55,5.86,9.47,8.74,14.24c-0.37,0.58-0.74,1.15-1.11,1.73
			c-4.92-0.33-9.88-0.37-14.75-1.09c-4.29-0.64-6.23-0.02-6.37,5.04c-0.26,9.19-0.84,9.22-9.8,10.89c-1.61,0.3-3.41,2.54-4.11,4.29
			c-4.13,10.3-6.07,11.05-16.41,6.9c-1.8-0.72-4.45,0.64-6.7,1.11c-0.33,0.07-0.58,0.55-0.86,0.84
			c-10.73,10.98-13.08,10.63-21.03-2.41c-1.04-1.7-3.68-3.39-5.58-3.39c-6.61-0.02-11.45-2.45-14.15-8.53
			c-1.52-3.41-3.82-3.35-6.96-2.62c-14.42,3.32-16.05,1.61-13.52-13.3c0.28-1.66-0.18-3.45-0.29-5.19
			C50.6,434.17,50.77,434.45,50.77,434.45z M72.17,406.17c-4.95,1.77-9.83,3.86-8.66,10.47c0.83,4.7,8.01,8.48,14.6,7.58
			c-2.76-2.35-5.12-4.37-7.5-6.38c-2.2-1.86-3.25-4.2-0.42-5.96c5.46-3.41,4.61-8.24,4-13.37c-0.87-7.35,0.03-8.02,6.92-6.11
			c1.39,0.38,2.81,0.61,5.01,1.08c-4.55-6.34-9.75-8.63-13.61-6.6C67.74,389.38,67.61,395.86,72.17,406.17z M139.06,416.99
			c-1.31-5.67-3.04-10.88-8.82-11.41c-8.01-0.73-8.62,6.97-11.14,12.06c-7.55-1.94-11.02-1.19-13.18,2.72
			c-2.9,5.27-2.23,12.95,1.68,16.57c0.45-2.76,0.98-5.32,1.27-7.92c0.63-5.59,2.44-9.43,9.28-7.86c1.23,0.28,3.41-0.97,4.3-2.15
			c6.62-8.85,6.55-8.9,14.97-2.37C137.57,416.74,137.81,416.72,139.06,416.99z"/>
		<path class="st0" d="M173.25,279.66c5.92-11.13,9.52-14.1,14.6-12.23c4.27,1.57,6.1,7.55,4.12,14.61
			c-2.08-3.58-3.96-6.82-6.22-10.7c-2.22,2.02-4.2,3.41-5.65,5.23c-3.13,3.94-6.07,7.38-12.07,5.86c-3.06-0.78-4.73,1.43-4.36,4.86
			c0.33,2.99,0.31,6.01,0.45,9.24c-4.74-2.86-7.01-10.63-4.74-15.21C161.38,277.26,164.92,276.8,173.25,279.66z"/>
		<path class="st0" d="M308.73,208.76c5.38-2.31,11.1-7.07,16.48-1.18c3.97,4.35,1.18,9.24-1.25,14.78
			c-1.41-4.87-1.41-9.88-3.77-11.55c-2.09-1.48-6.78,1.05-10.35,1.21c-1.49,0.07-3.55-1.03-4.48-2.26c-3.21-4.27-6.49-4.18-10.31-1
			c-2.34,1.95-4.79,3.76-7.23,5.66c-1.07-4.82,3.59-11.16,9.46-13.03C301.84,199.94,305.88,202.52,308.73,208.76z"/>
		<path class="st0" d="M208.83,228.88c1.98,2.64,3.96,5.29,6.2,8.28c-6.12-0.1-11.77-3.69-11.06-7.57c0.6-3.24,3.68-6.02,6.33-8.56
			c0.64-4.76-3.4-11.35,4.03-14.4c5.09-2.09,7.85,2.28,10.98,7.4c-3.89-1.13-6.57-1.9-9.92-2.87c-0.36,3.59-0.13,6.93-1.16,9.82
			C213.29,223.65,210.99,225.84,208.83,228.88z"/>
		<path class="st0" d="M72.17,406.17c-4.56-10.3-4.43-16.79,0.34-19.29c3.86-2.03,9.06,0.26,13.61,6.6
			c-2.19-0.47-3.62-0.69-5.01-1.08c-6.89-1.91-7.79-1.24-6.92,6.11c0.61,5.13,1.46,9.96-4,13.37c-2.83,1.77-1.78,4.1,0.42,5.96
			c2.37,2.01,4.73,4.02,7.5,6.38c-6.59,0.9-13.77-2.87-14.6-7.58C62.35,410.03,67.22,407.93,72.17,406.17z"/>
		<path class="st0" d="M139.06,416.99c-1.25-0.26-1.49-0.25-1.64-0.36c-8.42-6.53-8.35-6.48-14.97,2.37
			c-0.89,1.18-3.06,2.43-4.3,2.15c-6.84-1.57-8.65,2.27-9.28,7.86c-0.29,2.59-0.82,5.16-1.27,7.92c-3.91-3.61-4.58-11.3-1.68-16.57
			c2.15-3.91,5.63-4.66,13.18-2.72c2.51-5.09,3.13-12.79,11.14-12.06C136.02,406.1,137.74,411.31,139.06,416.99z"/>
	</g>
</g>
</svg>
