<?xml version="1.0" encoding="utf-8"?>
<!-- Generator: Adobe Illustrator 24.1.2, SVG Export Plug-In . SVG Version: 6.00 Build 0)  -->
<svg version="1.1" id="Capa_1" xmlns="http://www.w3.org/2000/svg" xmlns:xlink="http://www.w3.org/1999/xlink" x="0px" y="0px"
	 viewBox="0 0 989.05 423.36" style="enable-background:new 0 0 989.05 423.36;" xml:space="preserve">
<g>
	<path d="M76.56,98.15c-1.28,10.21-2.42,19.37-3.59,28.52c-1.23,9.55-2.51,19.09-3.73,28.64c-1.12,8.75-2.14,17.51-3.26,26.26
		c-1.22,9.55-2.48,19.09-3.78,28.63c-0.37,2.69-0.56,7.52-1.46,7.68c-4.63,0.78-9.46,0.36-15.17,0.36
		c7.46-56.15,14.89-112.12,22.32-168.1c0.52-0.16,1.03-0.31,1.55-0.47c1.05,1.2,2.44,2.24,3.1,3.63c8.2,17.2,16.3,34.45,24.42,51.69
		c12.28,26.07,24.55,52.14,36.83,78.21c0.68,1.45,1.39,2.89,2.57,5.35c7.55-16.39,14.62-31.85,21.79-47.27
		c7.21-15.5,14.21-31.11,21.86-46.39c7.49-14.98,13.47-30.76,22.06-45.18c0.46,0.2,0.92,0.4,1.37,0.6
		c7.63,55.9,15.26,111.8,22.93,168.02c-5.08,0-10.07,0-15.36,0c-5.23-39.28-10.45-78.49-15.66-117.7c-0.35-0.1-0.71-0.2-1.06-0.31
		c-1.17,2.3-2.38,4.58-3.49,6.91c-9.38,19.71-18.76,39.42-28.11,59.15c-7.6,16.04-15.11,32.12-22.83,48.11
		c-0.8,1.65-2.7,2.77-4.09,4.13c-1.27-1.3-3.01-2.39-3.75-3.95c-13.56-28.53-27.02-57.12-40.47-85.7
		c-4.23-8.99-8.35-18.02-12.57-27.01C78.46,100.91,77.71,99.97,76.56,98.15z"/>
	<path d="M615.53,157.66c-0.86,18,8.34,38.64,27.25,45.55c27.93,10.2,48.52-0.92,62.62-25.61c4.54,2.42,8.55,4.56,12.67,6.75
		c-6.25,12.65-14.64,23.27-27.28,30.24c-11.98,6.61-24.85,8.14-38.07,6.66c-9.76-1.09-18.96-4.15-26.98-10.37
		c-12.69-9.83-20.47-22.7-24.39-37.99c-3.86-15.06-2.35-29.8,3.9-44.01c9.1-20.69,23.85-33.89,47.13-37.04
		c15.4-2.09,29.51,0.68,41.95,9.35c15.9,11.08,25.11,26.63,26.83,46.24c0.28,3.23,0.85,6.43,1.36,10.24
		C686.56,157.66,651.21,157.66,615.53,157.66z M705.02,143.65c-3.3-21.74-23.16-39.78-50.23-36.67
		c-18.76,2.16-33.18,15.05-37.31,36.67C646.58,143.65,675.63,143.65,705.02,143.65z"/>
	<path d="M372.24,218.39c-4.97,0-9.56,0-14.56,0c0-6.79,0-13.36,0-19.91c-5.61,4.8-10.59,9.98-16.42,13.88
		c-19.74,13.21-46.75,12.72-65.91-2.59c-16.85-13.46-25.43-30.73-25.76-52.58c-0.28-18.76,5.8-34.72,18.58-47.97
		c8.97-9.31,19.95-15.47,33.19-17.29c22.09-3.04,39.85,4,53.46,21.63c0.64,0.83,1.99,1.11,2.78,1.53c0-6.29,0-13.46,0-20.85
		c5.1,0,9.69,0,14.64,0C372.24,135.52,372.24,176.78,372.24,218.39z M311.96,106.4c-4.5,0.74-9.12,1.05-13.47,2.29
		c-22.06,6.29-37.51,32.77-32.89,56.77c4.65,24.19,24.43,43.82,51.25,41.12c11.56-1.17,21.87-6.25,29.31-15.19
		c10.27-12.35,13.65-26.68,11.67-42.92C355.29,127.63,334.95,105.1,311.96,106.4z"/>
	<path d="M929.04,116c0-7.31,0-14.41,0-21.75c4.89,0,9.48,0,14.44,0c0,41.25,0,82.5,0,124.07c-4.69,0-9.4,0-14.52,0
		c0-6.71,0-13.28,0-20.22c-4.19,3.82-7.83,7.42-11.75,10.69c-14.47,12.07-31.3,15.93-49.21,11.18
		c-25.82-6.84-40.98-24.58-45.89-50.53c-3.53-18.66-0.89-36.46,10.8-52.23c10.12-13.66,22.88-22.88,40.17-25.26
		c21.68-2.98,39.2,3.92,52.61,21.24C926.45,114.18,927.63,114.84,929.04,116z M883.61,106.36c-4.65,0.77-9.43,1.11-13.94,2.39
		c-22.6,6.41-37.08,33.52-32.91,56.31c4.38,23.93,24.38,44.05,50.44,41.54c12.27-1.18,22.79-6.38,30.73-16.11
		c10.08-12.35,12.99-26.32,11.12-42.11C926.59,127.63,906.33,105.3,883.61,106.36z"/>
	<path d="M518.34,312.67c-4.41,5.87-8.66,11.45-12.82,17.09c-0.95,1.3-1.8,2.76-2.3,4.27c-0.35,1.06-0.48,2.82,0.13,3.4
		c0.62,0.59,2.57,0.58,3.39,0.03c7.81-5.29,16.03-10.16,23.06-16.37c5.15-4.55,8.63-10.96,12.96-16.45
		c2.26-2.86,5.27-4.02,10.46-2.87c-5.78,5.49-10.86,10.32-16.17,15.37c1.01,1.16,1.78,2.2,2.7,3.07c2.3,2.17,2.09,4.07-0.03,6.35
		c-2.32,2.5-4.38,5.27-6.34,8.07c-0.48,0.69-0.56,2.46-0.1,2.83c0.69,0.55,2.3,0.74,3.03,0.3c5.69-3.48,11.19-7.27,16.89-10.72
		c10.96-6.64,15.65-17.92,21.49-28.38c3.79-6.8,7.74-13.51,11.75-20.5c-10.85-3.27-20.93-1.98-30.81,3.21
		c1.66-4.52,5.69-6.13,9.29-6.64c7.14-1.02,14.45-1.1,21.7-1.08c2.44,0.01,3.45-0.51,4.93-2.5c7.23-9.69,14.83-19.1,22.31-28.6
		c0.41-0.52,0.84-1.2,1.4-1.38c2.32-0.75,4.69-1.33,7.04-1.97c-0.29,2.23,0.15,4.95-0.98,6.59c-4.81,6.97-10.07,13.64-15.21,20.39
		c-2.16,2.84-4.4,5.62-6.78,8.64c11.73,4.18,22.41,0.42,34.17-1.37c-0.92,1.01-1.64,2.49-2.78,2.96
		c-10.23,4.29-20.89,3.37-31.58,2.57c-1.58-0.12-3.88,0.51-4.78,1.64c-13.5,16.84-25.77,34.5-34.31,54.45
		c-4.35,10.14-8.44,20.4-12.42,30.7c-0.74,1.91-2.35,3.94,0.42,6.45c1.94,1.75-1.91,6.64-6.7,8.02
		c-0.46-19.33,10.2-34.83,17.3-52.55c-5.55,3.98-9.96,7.54-14.77,10.45c-3.12,1.89-6.72,3.47-10.28,4.02
		c-5.55,0.85-7.74-2.47-5.23-7.46c1.23-2.43,3.28-4.44,4.84-6.72c1.01-1.48,1.81-3.1,1.85-5.17c-6.96,5.08-13.84,10.26-20.91,15.18
		c-2.22,1.55-4.84,2.65-7.42,3.52c-7.5,2.53-9.91,0.28-8.81-7.81c-5.05,2.64-10.04,5.67-15.38,7.82c-1.97,0.79-5.25,0.24-7.08-0.97
		c-2.65-1.75-2.21-4.71-0.42-7.34c4.1-6.01,8.12-12.06,12.82-19.04c-11.62,8.23-19.96,18.12-27.23,28.89
		c-3.88,5.75-6.79,12.15-10.17,18.23c-0.79,1.42-1.5,3.04-2.69,4.03c-1.06,0.88-2.73,1.03-4.14,1.5c-0.06-1.29-0.51-2.72-0.11-3.85
		c4-11.13,8.13-22.21,12.26-33.29c0.72-1.93,1.61-3.8,2.9-6.83c-7.88,3.88-14.79,7.25-21.68,10.66c-3.23,1.59-6.6,2.98-9.58,4.95
		c-1.84,1.22-4.11,3.21-4.4,5.12c-1.35,9.09-7.77,14.17-14.39,18.98c-2.94,2.13-6.56,3.69-10.09,4.48c-1.95,0.44-5.74-0.72-6.27-2.1
		c-0.75-1.92,0.01-5.4,1.46-7.02c3.49-3.89,7.6-7.29,11.75-10.51c2.94-2.28,6.55-3.7,9.46-6.01c1.24-0.99,2.24-3.41,1.97-4.94
		c-0.59-3.31-2.18-6.44-3.18-9.7c-3.46-11.28-0.07-20.97,8.52-28.21c5.61-4.73,12.45-8.25,19.23-11.21c2.75-1.2,7.96-0.66,9.88,1.25
		c1.82,1.82,2.13,7.15,0.79,9.73c-2.78,5.32-7.02,9.91-10.9,14.6c-0.5,0.61-2.42,0.05-3.69,0.03c0.27-1.05,0.25-2.32,0.86-3.11
		c2.84-3.67,6.2-6.99,8.65-10.88c1.08-1.71,1.33-5.11,0.3-6.62c-0.81-1.19-4.3-1.28-6.35-0.8c-9.9,2.3-25.81,15.01-23.41,27.74
		c1.13,6.01,3.21,11.83,4.87,17.78c12.71-6.07,25.08-11.92,37.37-17.92c1.02-0.5,1.65-1.95,2.3-3.05
		c10.09-17.09,19.7-34.49,30.43-51.17c4.69-7.29,11.48-13.31,17.77-19.45c1.44-1.4,5.28-1.89,7.05-0.96
		c1.66,0.87,3.29,4.54,2.75,6.33c-2.02,6.77-4.18,13.7-7.64,19.81c-8.76,15.47-21.21,28-34.02,40.15c-2.13,2.02-4.32,4.27-6.92,5.46
		c-10.97,5.02-11.41,16.42-15.6,25.62c4.5-5.55,8.63-11.45,13.61-16.54c4.76-4.87,10.26-9.06,15.74-13.15
		c1.29-0.97,3.79-0.32,5.73-0.42c-0.17,2.03,0.34,4.48-0.62,6.03c-3,4.83-6.69,9.22-9.8,13.98c-1.02,1.56-1.07,3.75-1.57,5.64
		c1.91-0.28,4-0.15,5.69-0.91c9.91-4.45,17.85-11.55,25.25-19.29c0.73-0.76,0.9-2.03,1.46-2.98
		C513.03,311.62,514.94,310.2,518.34,312.67z M469.19,311.23c0.28,0.33,0.55,0.67,0.83,1c1.26-0.9,2.7-1.63,3.77-2.73
		c8.47-8.69,17.66-16.83,25.04-26.37c6.57-8.49,11.29-18.46,16.41-28c1.03-1.92,0.15-4.85,0.15-7.31c-0.67-0.15-1.35-0.29-2.02-0.44
		C493,264.74,482.25,288.78,469.19,311.23z M395.8,363.04c10.77-0.3,22.65-11.57,20.87-18.9
		C409.06,349.4,400.05,352.91,395.8,363.04z M598.96,266.46c0.4,0.31,0.79,0.62,1.19,0.92c5.42-6.98,10.85-13.97,16.27-20.95
		c-0.41-0.31-0.82-0.62-1.24-0.94C609.78,252.49,604.37,259.48,598.96,266.46z"/>
	<path d="M517.79,192.58c6,6.58,12.34,11.98,21.31,13.52c11.38,1.95,24.51-5.92,25.31-18.99c0.76-12.45-7.93-17.7-16.61-23.2
		c-7.28-4.61-14.88-8.82-21.7-14.04c-11.57-8.86-14.55-20.89-11.31-34.84c4.52-19.51,26.6-29.12,43.88-21.08
		c7.28,3.39,13.85,8.3,21.06,12.72c-3.74,4.32-6.81,7.87-9.27,10.7c-6.54-3.66-12.34-7.57-18.66-10.27
		c-8.51-3.64-18.59,0.49-23.19,9.45c-3.54,6.9,0.05,17.25,7.69,22.27c9.37,6.16,19.22,11.65,28.31,18.19
		c10.59,7.61,15.98,18.56,14.47,31.53c-1.89,16.2-10.53,27.9-27.02,32.02c-15.07,3.77-28.06-1.38-39.35-11.2
		c-5.13-4.46-4.85-5.32-0.4-10.11C514.2,197.22,515.85,194.97,517.79,192.58z"/>
	<path d="M764.27,107.86c-7.48,0-14.07,0-20.9,0c0-4.62,0-8.87,0-13.68c6.69,0,13.41,0,20.66,0c0-15.54,0-30.56,0-45.8
		c5.13,0,9.72,0,14.86,0c0,15.01,0,30.02,0,45.57c8.24,0,15.96,0,23.9,0c0,4.79,0,9.05,0,13.85c-7.72,0-15.44,0-23.68,0
		c0,37.14,0,73.75,0,110.59c-5.12,0-9.71,0-14.84,0C764.27,181.79,764.27,145.18,764.27,107.86z"/>
	<path d="M417.53,218.39c-5.65,0-10.57,0-15.73,0c0-41.38,0-82.51,0-124.02c5.02,0,10.06,0,15.6,0c0,5.49,0,11.02,0,17.67
		c7.95-10.29,15.55-19.7,28.34-20.79c5.18-0.44,10.6,1.85,16.65,3.04c-1.83,3-2.89,4.62-3.82,6.3c-2.41,4.36-3.85,8.31-11.13,6.7
		c-11.23-2.48-19.26,6.77-23.79,16.58c-4.96,10.72-5.92,22.35-6.06,33.96c-0.22,18.27-0.06,36.54-0.06,54.81
		C417.53,214.45,417.53,216.24,417.53,218.39z"/>
	<path d="M331.13,265.57c5.86-3.33,11.49-7.14,17.61-9.89c17.62-7.95,36.5-11.56,55.35-15.18c1.27-0.24,2.7-1.56,3.34-2.75
		c1.38-2.58,3.01-2.45,5.3-1.46c2.18,0.95,4.55,2.29,6.78,2.18c16.12-0.77,32.23-2.66,48.33-2.56c9.62,0.06,19.23,2.99,28.8,4.86
		c1.83,0.36,3.77,1.48,5.08,2.81c1.18,1.2,1.56,3.17,2.29,4.8c-1.88,0.71-4.12,2.41-5.57,1.89c-2.3-0.82-3.85-3.55-6.12-4.69
		c-3.34-1.69-6.94-3.24-10.59-3.87c-6.28-1.09-12.69-2.01-19.05-1.97c-9.54,0.06-19.08,0.95-28.61,1.58
		c-4.75,0.31-9.48,1.12-14.23,1.18c-4.33,0.06-6.32,1.42-7.96,5.89c-4.36,11.88-9.33,23.59-14.92,34.94
		c-5.04,10.26-9.5,20.6-12.34,31.69c-3.46,13.5-9.61,25.92-17.06,37.6c-4.54,7.13-10.07,13.63-15.27,20.33
		c-0.86,1.11-2.21,2.04-3.53,2.52c-1.01,0.37-2.32-0.09-3.5-0.19c0.12-1.02-0.04-2.19,0.41-3.04c5.37-10.25,10.81-20.46,16.27-30.66
		c4.54-8.47,9.1-16.93,13.69-25.38c1.48-2.72,3.16-5.33,4.59-8.07c5.87-11.21,6.42-22.52-0.68-33.3
		c-4.07-6.17-10.79-9.16-17.93-9.13c-8.65,0.04-17.28,1.48-25.93,2.23c-1.32,0.11-2.68-0.25-4.02-0.39
		C331.48,266.87,331.31,266.22,331.13,265.57z M389.5,288.59c0.44-0.15,0.87-0.3,1.31-0.46c5.26-12.54,10.57-25.06,15.74-37.64
		c0.57-1.38,0.97-4.1,0.43-4.41c-1.51-0.85-3.67-1.32-5.37-0.95c-10.79,2.32-21.6,4.62-32.25,7.5c-7.58,2.05-14.9,5.02-22.34,7.58
		C368.21,259.5,386.77,261.39,389.5,288.59z M376.3,327.57c-0.47-0.25-0.94-0.5-1.4-0.75c-6.13,11.27-12.26,22.55-18.39,33.82
		c0.45,0.24,0.9,0.48,1.35,0.72C364.01,350.1,370.16,338.84,376.3,327.57z"/>
	<path d="M472.82,94.22c4.9,0,9.49,0,14.35,0c0,41.46,0,82.69,0,124.18c-4.8,0-9.39,0-14.35,0
		C472.82,177.15,472.82,135.91,472.82,94.22z"/>
	<path d="M467.47,56.3c-0.05-7.19,5.48-13.09,12.34-13.15c6.61-0.06,12.59,6.06,12.62,12.91c0.03,6.94-6.38,14.1-12.64,13.6
		C472.93,69.12,466.96,62.96,467.47,56.3z"/>
	<path d="M519.24,305.47c1.04-1.61,1.94-3.34,3.17-4.79c0.69-0.81,1.93-1.15,2.92-1.71c0.08,1.29,0.73,3.03,0.13,3.78
		c-1.32,1.66-3.27,2.83-4.97,4.2C520.08,306.46,519.66,305.97,519.24,305.47z"/>
</g>
</svg>
